# xmcd
#
# Track frame offsets: 
#        150
#        21192
#        32947
#        47537
#        70822
#        94222
#        108587
#        124860
#        133487
#        158687
#        172372
#        190137
#        214685
#        223637
#
# Disc length: 3098 seconds
#
# Revision: 2
# Processed by: cddbd v1.5.2PL0 Copyright (c) Steve Scherf et al.
# Submitted via: ExactAudioCopyFreeDBPlugin 1.0
#
DISCID=d50c180e
DTITLE=Duke Ellington - The Popular Duke Ellington
DYEAR=1966
DGENRE=Jazz
TTITLE0=Take The "A" Train
TTITLE1=I Got It Bad (and That Ain"t Good)
TTITLE2=Perdido
TTITLE3=Mood Indigo
TTITLE4=Black and Tan Fantasy
TTITLE5=The Twitch
TTITLE6=Solitude
TTITLE7=Do Nothin' Till You Hear From Me
TTITLE8=The Mooche
TTITLE9=Sophisticated Lady
TTITLE10=Creole Love Call
TTITLE11=Caravan
TTITLE12=Wings and Things
TTITLE13=Do Nothin' Till You Hear From Me
EXTD=
EXTT0=
EXTT1=
EXTT2=
EXTT3=
EXTT4=
EXTT5=
EXTT6=
EXTT7=
EXTT8=
EXTT9=
EXTT10=
EXTT11=
EXTT12=
EXTT13=
PLAYORDER=
